<?xml version="1.0" encoding="utf-8"?><svg width="48" height="48" fill="none" xmlns="http://www.w3.org/2000/svg" viewBox="0 0 48 48"><path d="M27.651 4.001h-7.93c-.38 0-.69.32-.69.712 0 .392.31.71.69.71h7.93c.381 0 .69-.318.69-.71a.701.701 0 00-.69-.712zM22.944 45.37h3.154c.663 0 1.276-.366 1.608-.957a1.968 1.968 0 000-1.915 1.847 1.847 0 00-1.608-.958h-3.154c-.492 0-.964.202-1.312.561-.349.36-.544.847-.544 1.355s.195.994.544 1.353c.348.36.82.56 1.312.56zm-8.336-4.657h18.783V6.782H14.608v4.384c6.509 1.884 8.807 7.923 7.726 12.562-.61 2.623-2.333 5.094-3.653 6.909l-4.073 6.058v4.017z" fill="#80B3FF"/><path fill-rule="evenodd" clip-rule="evenodd" d="M14.956.63h18.087a3.43 3.43 0 012.459 1.053 3.656 3.656 0 011.02 2.537v39.69a3.656 3.656 0 01-1.02 2.536 3.426 3.426 0 01-2.459 1.053H14.956a3.43 3.43 0 01-2.458-1.053 3.652 3.652 0 01-1.02-2.537v-6.384h1.39v6.385c0 .572.22 1.12.612 1.525.391.404.922.631 1.476.631h18.087c.554 0 1.086-.227 1.477-.63.391-.405.612-.953.612-1.526V4.22c0-.57-.22-1.119-.612-1.524a2.055 2.055 0 00-1.477-.631H14.956c-.554 0-1.085.227-1.476.631a2.192 2.192 0 00-.612 1.525v6.715h-1.39V4.22a3.656 3.656 0 011.02-2.537A3.432 3.432 0 0114.956.63zm-3.478 27.061v6.047h1.39V27.69h-1.39zm0-9.11h1.39v4.85h-1.39v-4.85z" fill="#80B3FF"/><path fill-rule="evenodd" clip-rule="evenodd" d="M15.406 15.496a8.16 8.16 0 00-7.812 0l-.003.001a8.797 8.797 0 00-4.358 5.682 8.663 8.663 0 001.354 6.991c2.547 3.62 5.24 7.448 6.368 9.049a.667.667 0 001.09 0l6.368-9.048a8.665 8.665 0 001.354-6.992 8.798 8.798 0 00-4.358-5.682l-.003-.001zM11.5 17.763c-2.93 0-5.307 2.34-5.307 5.22 0 2.882 2.378 5.221 5.307 5.221 2.928 0 5.306-2.339 5.306-5.22 0-2.882-2.377-5.221-5.306-5.221z" fill="#06F"/><path fill-rule="evenodd" clip-rule="evenodd" d="M8 23a3.5 3.5 0 107 0 3.5 3.5 0 00-7 0z" fill="#06F"/></svg>