<?xml version="1.0" encoding="utf-8"?><svg width="48" height="48" fill="none" xmlns="http://www.w3.org/2000/svg" viewBox="0 0 48 48"><path fill-rule="evenodd" clip-rule="evenodd" d="M43.954 37.336A24 24 0 0048 24.003v-.006a24 24 0 10-4.046 13.339zM25.458 12.523l13.66 13.654h-.003a2.407 2.407 0 010 3.392l-9.543 9.549a2.407 2.407 0 01-3.395 0L12.52 25.464a6.567 6.567 0 01-1.667-4.098l.094-8.015a2.47 2.47 0 012.428-2.426l7.988-.079a6.575 6.575 0 014.095 1.677zM14.652 14.19a1.68 1.68 0 111.866 2.793 1.68 1.68 0 01-1.866-2.793z" fill="#80B3FF"/><path d="M31.67 31.663a1.2 1.2 0 01-1.698 0l-.746-.745a5.625 5.625 0 01-.994.521 3.546 3.546 0 01-1.41.276c-.103 0-.206 0-.312-.01a1.2 1.2 0 11.173-2.394c.204.023.41-.003.603-.076.21-.083.411-.186.6-.309.193-.13.376-.274.549-.43.395-.392.675-.885.81-1.425.127-.603-.076-.806-.173-.904a.89.89 0 00-.564-.251 1.982 1.982 0 00-.67.073c-.22.07-.43.169-.625.294-.18.117-.346.253-.497.406-.25.253-.52.484-.81.691a4.87 4.87 0 01-1.278.655 3.957 3.957 0 01-1.656.182 3.343 3.343 0 01-2.028-.94 3.39 3.39 0 01-.833-3.222 5.118 5.118 0 01.67-1.583l-.728-.727a1.2 1.2 0 111.695-1.698l.755.752c.329-.203.677-.372 1.04-.506.47-.178.967-.27 1.47-.273a1.2 1.2 0 11.002 2.4 1.804 1.804 0 00-.624.119 3.46 3.46 0 00-.63.303l-.061.036a3.393 3.393 0 00-.449.322c-.385.382-.66.86-.8 1.385a1.013 1.013 0 00.19.994c.16.144.363.23.577.249.22.022.442-.002.652-.07.227-.079.443-.19.64-.33a4.02 4.02 0 00.509-.437 5.096 5.096 0 012.107-1.294 4.41 4.41 0 011.546-.176 3.28 3.28 0 012.097.952 3.207 3.207 0 01.819 3.098 5.159 5.159 0 01-.676 1.637l.758.76a1.2 1.2 0 01.26 1.31c-.06.145-.149.274-.26.386z" fill="#06F"/></svg>