<?xml version="1.0" encoding="utf-8"?><svg width="48" height="48" fill="none" xmlns="http://www.w3.org/2000/svg" viewBox="0 0 48 48"><path d="M24 0C10.751 0 0 10.745 0 24s10.751 24 24 24 24-10.745 24-24S37.249 0 24 0zm7.5 34.5c-.377.376.321 1.178 0 1.5-.29.29-1.396-.388-1.5 0-.146.548.197 2.469 0 3l-1.5 4.5c-1.331.29-3.083 0-4.5 0v-3c.163-1.221-.05-3.05-1.5-4.5-.58-.58-1.5-2.178-1.5-3v-3c0-1.127-.514-.955-1.5-1.5-1.39-.77-3.146-2.318-4.5-3-1.11-.56-2.076-2.167-3-3-.66-.597-2.5-.763-3-1.5-.907-1.333-2.04-3.076-3-4.5C7.5 12 12 7.5 16.5 6L18 7.5c1.03.515 3-.348 3-1.5V4.5c.773-.125 2.2.03 3 0l1.5 3c.605.605.605.895 0 1.5v1.5H24c-.302.302-.302 1.198 0 1.5h1.5c.302.302.302 1.198 0 1.5L24 15c.205 0-.145.145 0 0h-1.5c.145-.141-.201 0 0 0L21 16.5c.027-.162-.118.115 0 0-.073-.147-.027.162 0 0l1.5 3c.257.515.575 1.5 0 1.5H21c.14.122-.187 0 0 0l-1.5-1.5c.264.053-.203-.176 0 0-.264-.053-1.245-.085-1.5 0L15 21c.142-.197-.23.077 0 0 0-.243-.142.197 0 0 0 .438-.392 1.303 0 1.5l1.5 1.5c.91.456 1.982 0 3 0s2.09 2.544 3 3h6c.821 0 2.419.92 3 1.5L33 30c.553.554 0 .717 0 1.5 0 .593.228.952 0 1.5s-1.08 1.082-1.5 1.5zm9-9c-.56-.14-1.18.481-1.5 0l-1.5-3c-.255-.381 0-1.041 0-1.5 0-.459-.255-1.119 0-1.5l1.5-3c.224-.336 1.138.18 1.5 0L42 15c1.308 2.605 1.5 5.89 1.5 9 0 .839.105 2.189 0 3l-3-1.5z" fill="#06F"/><path d="M48 24c0 13.255-10.751 24-24 24S0 37.255 0 24 10.751 0 24 0s24 10.745 24 24zM4.5 24c0 10.694 8.812 19.5 19.5 19.5S43.5 34.694 43.5 24 34.688 4.5 24 4.5 4.5 13.306 4.5 24z" fill="#80B3FF"/></svg>