<svg width="32" height="32" viewBox="0 0 32 32" fill="none" xmlns="http://www.w3.org/2000/svg"><g clip-path="url(#clip0_2_40)" fill-rule="evenodd" clip-rule="evenodd"><path d="M2.256.512a3.85 3.85 0 013.836 0h.002a4.502 4.502 0 012.14 2.922 4.625 4.625 0 01-.665 3.595l-3.127 4.653a.323.323 0 01-.268.144.323.323 0 01-.268-.144L.779 7.029a4.626 4.626 0 01-.665-3.595A4.502 4.502 0 012.254.513l.002-.001zm1.918 1.166c1.438 0 2.606 1.203 2.606 2.684 0 1.482-1.168 2.685-2.606 2.685S1.568 5.844 1.568 4.362c0-1.481 1.168-2.684 2.606-2.684z" fill="#06F"/><path d="M5.565 4.174a1.391 1.391 0 11-2.782 0 1.391 1.391 0 012.782 0z" fill="#06F"/><path d="M23.202 30.26V17.045l6.862 3.999c.058.034.117.064.177.09v9.128h1.32c.242 0 .44.195.44.435v.87c0 .24-.198.434-.44.434H2.526a.438.438 0 01-.44-.435v-.87c0-.24.197-.434.44-.434h1.32V18.089c.061-.027.12-.058.18-.092l10.38-6.08 7.476 4.357v13.987h1.319zM6.486 19.827c-.486 0-.88.39-.88.87v4.348c0 .48.394.869.88.869h4.4c.485 0 .879-.39.879-.87v-4.347c0-.48-.394-.87-.88-.87H6.486zm11.877 1.74v8.26c0 .24.198.435.44.435h.88c.243 0 .44-.195.44-.435v-9.13c0-.48-.394-.87-.88-.87h-4.839c-.486 0-.88.39-.88.87v9.13c0 .24.198.435.44.435h.88c.243 0 .44-.195.44-.435v-8.26h3.08zM7.366 24.173v-2.609h2.64v2.609h-2.64zm15.836-12.178V8.522c0-.48.394-.87.88-.87h2.2c.486 0 .88.39.88.87v5.781l-3.96-2.307zM14.405 10.4l-11.05 6.473a.443.443 0 01-.604-.152l-.448-.748a.432.432 0 01.154-.596l11.499-6.735a.89.89 0 01.895 0l16.778 9.779a.432.432 0 01.155.595l-.447.75a.443.443 0 01-.603.153L14.405 10.4z" fill="#80B3FF"/></g><defs><clipPath id="clip0_2_40"><path fill="#fff" d="M0 0h32v32H0z"/></clipPath></defs></svg>