<svg width="48" height="48" viewBox="0 0 48 48" fill="none" xmlns="http://www.w3.org/2000/svg"><path d="M36.41 37.101c-1.442 0-2.646.942-2.993 2.209H27.73c.022-.115-2.5-2.434-2.633-2.577a1.612 1.612 0 00-2.194 0c-.137.148-2.653 2.453-2.633 2.577h-5.687c-.928-3.297-6.047-2.708-6.095.736.049 3.445 5.167 4.034 6.095.737h5.687c-.022.115 2.5 2.433 2.633 2.577.303.287.7.43 1.097.43a1.59 1.59 0 001.096-.43c.137-.148 2.654-2.454 2.634-2.577h5.687c.929 3.298 6.046 2.707 6.094-.737 0-1.624-1.39-2.945-3.102-2.945zm-10.071 2.998L24 42.319 21.663 40.1a.159.159 0 000-.107L24 37.773l2.337 2.22a.157.157 0 000 .106z" fill="#06F"/><path d="M43.96 12.768H21.158c-1.677 0-3.04 1.407-3.04 3.136v6.274c0 .94.41 1.776 1.048 2.352a3.158 3.158 0 00-1.049 2.354v6.273c-.008 1.84 1.534 3.266 3.3 3.137.719-.83 1.64-1.617 2.78-1.568h-3.04c-.835 0-1.52-.706-1.52-1.569v-6.273c0-.863.684-1.569 1.52-1.569H43.96c.836 0 1.52.706 1.52 1.569v1.568H32.56c-1.68 0-3.04 1.404-3.04 3.137v3.137h-5.321c1.142-.05 2.063.739 2.782 1.568h16.98c1.68 0 3.04-1.404 3.04-3.137v-6.273c0-.944-.41-1.78-1.048-2.354A3.159 3.159 0 0047 22.178v-6.274c0-1.73-1.364-3.136-3.04-3.136zm-6.84 19.997c0 .65-.51 1.176-1.14 1.176h-1.52c-.632 0-1.141-.525-1.141-1.176v-.784c0-.651.51-1.177 1.14-1.177h1.52c.631 0 1.14.526 1.14 1.177v.784zm6.08 0c0 .65-.51 1.176-1.14 1.176h-1.52c-.63 0-1.14-.525-1.14-1.176v-.784c0-.651.51-1.177 1.14-1.177h1.52c.63 0 1.14.526 1.14 1.177v.784zm-6.08-10.98c0 .65-.51 1.177-1.14 1.177h-1.52c-.63 0-1.141-.527-1.141-1.176V21c0-.65.51-1.176 1.14-1.176h1.52c.63 0 1.14.527 1.14 1.176v.785zm6.08 0c0 .65-.51 1.177-1.14 1.177h-1.52c-.63 0-1.14-.527-1.14-1.176V21c0-.65.51-1.176 1.14-1.176h1.52c.63 0 1.14.527 1.14 1.176v.785zm2.28-4.313H32.56c-1.676 0-3.04 1.408-3.04 3.137v3.137h-8.361c-.839 0-1.52-.703-1.52-1.568v-6.274c0-.865.681-1.569 1.52-1.569H43.96c.839 0 1.52.704 1.52 1.569v1.568z" fill="#80B3FF"/><path d="M15.755 37.278h3.899l.207-.215a4.603 4.603 0 01-3.483-4.458v-6.14c0-.837.23-1.627.623-2.302H7.92c-1.009-.02-1.011-1.516 0-1.535h8.527c-.085-.438-.07-1.084-.07-1.535H7.92a.77.77 0 01-.769-.767.77.77 0 01.769-.768h8.458v-1.535h-7.69v-1.535h6.92c1.009-.018 1.013-1.515 0-1.534H7.92a.77.77 0 00-.769.767v2.302h-.677c-.9 0-1.63-.729-1.63-1.627v-5.955c0-.898.73-1.627 1.63-1.627H20.13c.9 0 1.63.729 1.63 1.627v.675h3.845v-3.07A3.842 3.842 0 0021.76 4.21H4.844A3.842 3.842 0 001 8.047v27.627a3.842 3.842 0 003.844 3.838h2.307c.072-4.66 6.32-6.223 8.604-2.233zm-10.91-2.371c-1.01-.02-1.01-1.516 0-1.535 1.01.019 1.01 1.515 0 1.535zm0-3.07c-1.01-.02-1.01-1.516 0-1.535 1.01.02 1.01 1.516 0 1.535zm0-3.07c-1.01-.02-1.01-1.516 0-1.535 1.01.02 1.01 1.516 0 1.535z" fill="#80B3FF"/><path d="M27.21 14.907c-.713.013-.713 1.056 0 1.07.714-.014.714-1.057 0-1.07zm-3.21 0c-.713.013-.713 1.056 0 1.07.713-.014.713-1.057 0-1.07zm-3.21 0c-.712.013-.712 1.056 0 1.07.714-.014.714-1.057 0-1.07zM24 25.605c-.713.013-.713 1.056 0 1.07.713-.014.713-1.057 0-1.07zm3.21 0c-.713.013-.713 1.056 0 1.07.714-.014.714-1.057 0-1.07zm-6.42 0c-.712.013-.712 1.056 0 1.07.714-.014.714-1.057 0-1.07z" fill="#06F"/></svg>