<svg width="48" height="48" viewBox="0 0 48 48" fill="none" xmlns="http://www.w3.org/2000/svg"><path fill-rule="evenodd" clip-rule="evenodd" d="M23.002 23.784L1.163 13.877c-1.552-.704-1.552-3.05 0-3.753L23.002.217a2.4 2.4 0 011.996 0l21.837 9.908c1.552.704 1.552 3.048 0 3.752l-21.838 9.907a2.4 2.4 0 01-1.995 0zm18.409 7.892l5.425 2.459c1.552.703 1.552 3.046 0 3.75l-21.839 9.898a2.407 2.407 0 01-1.995 0L1.163 37.885c-1.552-.704-1.552-3.047 0-3.75l5.426-2.46 15.173 6.879c.71.321 1.462.485 2.237.485a5.38 5.38 0 002.237-.485l15.174-6.878z" fill="#06F"/><path d="M46.836 22.154l-5.446-2.469-15.153 6.87a5.38 5.38 0 01-2.237.484 5.384 5.384 0 01-2.237-.485L6.61 19.685l-5.446 2.469c-1.552.703-1.552 3.046 0 3.75L23 35.801a2.408 2.408 0 001.996 0l21.84-9.899c1.55-.703 1.55-3.046 0-3.75z" fill="#80B3FF"/></svg>