<?xml version="1.0" encoding="utf-8"?><svg viewBox="0 0 48 48" xmlns="http://www.w3.org/2000/svg" xmlns:xlink="http://www.w3.org/1999/xlink"><style>:root>svg{display:none}:root>svg:target{display:block}</style><svg viewBox="0 0 16 16" id="arrow" xmlns="http://www.w3.org/2000/svg"><path d="M7 2.75A.75.75 0 017.75 2h5.5a.75.75 0 01.75.75v5.5a.75.75 0 11-1.5 0V4.56l-9.22 9.22a.75.75 0 01-1.06-1.06l9.22-9.22H7.75A.75.75 0 017 2.75z"/></svg><svg fill="none" viewBox="0 0 16 16" id="charm_globe" xmlns="http://www.w3.org/2000/svg"><path d="M8 14.25a6.25 6.25 0 100-12.5 6.25 6.25 0 000 12.5z" stroke="#06F" stroke-width="1.5" stroke-linecap="round" stroke-linejoin="round"/><path d="M2 8.25h12M8.25 14.2C11 11 11 5 8.25 1.8m-.5 12.4C5 11 5 5 7.75 1.8" stroke="#06F" stroke-width="1.5" stroke-linecap="round" stroke-linejoin="round"/></svg><svg fill="none" viewBox="0 0 16 16" id="check" xmlns="http://www.w3.org/2000/svg"><path d="M10.97 4.97a.75.75 0 011.07 1.05l-3.99 4.99a.75.75 0 01-1.08.02L4.324 8.384a.75.75 0 111.06-1.06l2.094 2.093 3.473-4.425.019-.022z" fill="#06F"/></svg><svg viewBox="0 0 16 16" id="checkmark" xmlns="http://www.w3.org/2000/svg"><circle cx="8" cy="8" r="3"/></svg><svg viewBox="0 0 16 16" id="dropdown" xmlns="http://www.w3.org/2000/svg"><path d="M7.646 10.646L4.854 7.854A.5.5 0 015.207 7h5.586a.5.5 0 01.353.854l-2.792 2.792a.5.5 0 01-.708 0z"/></svg><svg fill="none" viewBox="0 0 16 16" id="globe" xmlns="http://www.w3.org/2000/svg"><path d="M8 14.25a6.25 6.25 0 100-12.5 6.25 6.25 0 000 12.5z"/><path d="M2 8.25h12M8.25 14.2C11 11 11 5 8.25 1.8m-.5 12.4C5 11 5 5 7.75 1.8"/></svg><svg fill="none" viewBox="0 0 48 48" id="mobile" xmlns="http://www.w3.org/2000/svg"><path d="M27.651 4.001h-7.93c-.38 0-.69.32-.69.712 0 .392.31.71.69.71h7.93c.381 0 .69-.318.69-.71a.701.701 0 00-.69-.712zM22.944 45.37h3.154c.663 0 1.276-.366 1.608-.957a1.968 1.968 0 000-1.915 1.847 1.847 0 00-1.608-.958h-3.154c-.492 0-.964.202-1.312.561-.349.36-.544.847-.544 1.355s.195.994.544 1.353c.348.36.82.56 1.312.56zm-8.336-4.657h18.783V6.782H14.608v4.384c6.509 1.884 8.807 7.923 7.726 12.562-.61 2.623-2.333 5.094-3.653 6.909l-4.073 6.058v4.017z" fill="#80B3FF"/><path fill-rule="evenodd" clip-rule="evenodd" d="M14.956.63h18.087a3.43 3.43 0 012.459 1.053 3.656 3.656 0 011.02 2.537v39.69a3.656 3.656 0 01-1.02 2.536 3.426 3.426 0 01-2.459 1.053H14.956a3.43 3.43 0 01-2.458-1.053 3.652 3.652 0 01-1.02-2.537v-6.384h1.39v6.385c0 .572.22 1.12.612 1.525.391.404.922.631 1.476.631h18.087c.554 0 1.086-.227 1.477-.63.391-.405.612-.953.612-1.526V4.22c0-.57-.22-1.119-.612-1.524a2.055 2.055 0 00-1.477-.631H14.956c-.554 0-1.085.227-1.476.631a2.192 2.192 0 00-.612 1.525v6.715h-1.39V4.22a3.656 3.656 0 011.02-2.537A3.432 3.432 0 0114.956.63zm-3.478 27.061v6.047h1.39V27.69h-1.39zm0-9.11h1.39v4.85h-1.39v-4.85z" fill="#80B3FF"/><path fill-rule="evenodd" clip-rule="evenodd" d="M15.406 15.496a8.16 8.16 0 00-7.812 0l-.003.001a8.797 8.797 0 00-4.358 5.682 8.663 8.663 0 001.354 6.991c2.547 3.62 5.24 7.448 6.368 9.049a.667.667 0 001.09 0l6.368-9.048a8.665 8.665 0 001.354-6.992 8.798 8.798 0 00-4.358-5.682l-.003-.001zM11.5 17.763c-2.93 0-5.307 2.34-5.307 5.22 0 2.882 2.378 5.221 5.307 5.221 2.928 0 5.306-2.339 5.306-5.22 0-2.882-2.377-5.221-5.306-5.221z" fill="#06F"/><path fill-rule="evenodd" clip-rule="evenodd" d="M8 23a3.5 3.5 0 107 0 3.5 3.5 0 00-7 0z" fill="#06F"/></svg><svg fill="none" viewBox="0 0 48 48" id="price" xmlns="http://www.w3.org/2000/svg"><path fill-rule="evenodd" clip-rule="evenodd" d="M43.954 37.336A24 24 0 0048 24.003v-.006a24 24 0 10-4.046 13.339zM25.458 12.523l13.66 13.654h-.003a2.407 2.407 0 010 3.392l-9.543 9.549a2.407 2.407 0 01-3.395 0L12.52 25.464a6.567 6.567 0 01-1.667-4.098l.094-8.015a2.47 2.47 0 012.428-2.426l7.988-.079a6.575 6.575 0 014.095 1.677zM14.652 14.19a1.68 1.68 0 111.866 2.793 1.68 1.68 0 01-1.866-2.793z" fill="#80B3FF"/><path d="M31.67 31.663a1.2 1.2 0 01-1.698 0l-.746-.745a5.625 5.625 0 01-.994.521 3.546 3.546 0 01-1.41.276c-.103 0-.206 0-.312-.01a1.2 1.2 0 11.173-2.394c.204.023.41-.003.603-.076.21-.083.411-.186.6-.309.193-.13.376-.274.549-.43.395-.392.675-.885.81-1.425.127-.603-.076-.806-.173-.904a.89.89 0 00-.564-.251 1.982 1.982 0 00-.67.073c-.22.07-.43.169-.625.294-.18.117-.346.253-.497.406-.25.253-.52.484-.81.691a4.87 4.87 0 01-1.278.655 3.957 3.957 0 01-1.656.182 3.343 3.343 0 01-2.028-.94 3.39 3.39 0 01-.833-3.222 5.118 5.118 0 01.67-1.583l-.728-.727a1.2 1.2 0 111.695-1.698l.755.752c.329-.203.677-.372 1.04-.506.47-.178.967-.27 1.47-.273a1.2 1.2 0 11.002 2.4 1.804 1.804 0 00-.624.119 3.46 3.46 0 00-.63.303l-.061.036a3.393 3.393 0 00-.449.322c-.385.382-.66.86-.8 1.385a1.013 1.013 0 00.19.994c.16.144.363.23.577.249.22.022.442-.002.652-.07.227-.079.443-.19.64-.33a4.02 4.02 0 00.509-.437 5.096 5.096 0 012.107-1.294 4.41 4.41 0 011.546-.176 3.28 3.28 0 012.097.952 3.207 3.207 0 01.819 3.098 5.159 5.159 0 01-.676 1.637l.758.76a1.2 1.2 0 01.26 1.31c-.06.145-.149.274-.26.386z" fill="#06F"/></svg><svg fill="none" viewBox="0 0 32 32" id="residential" xmlns="http://www.w3.org/2000/svg"><g clip-path="url(#iclip0_2_40)" fill-rule="evenodd" clip-rule="evenodd"><path d="M2.256.512a3.85 3.85 0 013.836 0h.002a4.502 4.502 0 012.14 2.922 4.625 4.625 0 01-.665 3.595l-3.127 4.653a.323.323 0 01-.268.144.323.323 0 01-.268-.144L.779 7.029a4.626 4.626 0 01-.665-3.595A4.502 4.502 0 012.254.513l.002-.001zm1.918 1.166c1.438 0 2.606 1.203 2.606 2.684 0 1.482-1.168 2.685-2.606 2.685S1.568 5.844 1.568 4.362c0-1.481 1.168-2.684 2.606-2.684z" fill="#06F"/><path d="M5.565 4.174a1.391 1.391 0 11-2.782 0 1.391 1.391 0 012.782 0z" fill="#06F"/><path d="M23.202 30.26V17.045l6.862 3.999c.058.034.117.064.177.09v9.128h1.32c.242 0 .44.195.44.435v.87c0 .24-.198.434-.44.434H2.526a.438.438 0 01-.44-.435v-.87c0-.24.197-.434.44-.434h1.32V18.089c.061-.027.12-.058.18-.092l10.38-6.08 7.476 4.357v13.987h1.319zM6.486 19.827c-.486 0-.88.39-.88.87v4.348c0 .48.394.869.88.869h4.4c.485 0 .879-.39.879-.87v-4.347c0-.48-.394-.87-.88-.87H6.486zm11.877 1.74v8.26c0 .24.198.435.44.435h.88c.243 0 .44-.195.44-.435v-9.13c0-.48-.394-.87-.88-.87h-4.839c-.486 0-.88.39-.88.87v9.13c0 .24.198.435.44.435h.88c.243 0 .44-.195.44-.435v-8.26h3.08zM7.366 24.173v-2.609h2.64v2.609h-2.64zm15.836-12.178V8.522c0-.48.394-.87.88-.87h2.2c.486 0 .88.39.88.87v5.781l-3.96-2.307zM14.405 10.4l-11.05 6.473a.443.443 0 01-.604-.152l-.448-.748a.432.432 0 01.154-.596l11.499-6.735a.89.89 0 01.895 0l16.778 9.779c.209.122.278.388.155.595l-.447.75a.443.443 0 01-.603.153l-16.329-9.519z" fill="#80B3FF"/></g><defs><clipPath id="iclip0_2_40"><path fill="#fff" d="M0 0h32v32H0z"/></clipPath></defs></svg><svg fill="none" viewBox="0 0 48 48" id="server" xmlns="http://www.w3.org/2000/svg"><path d="M36.41 37.101c-1.442 0-2.646.942-2.993 2.209H27.73c.022-.115-2.5-2.434-2.633-2.577a1.612 1.612 0 00-2.194 0c-.137.148-2.653 2.453-2.633 2.577h-5.687c-.928-3.297-6.047-2.708-6.095.736.049 3.445 5.167 4.034 6.095.737h5.687c-.022.115 2.5 2.433 2.633 2.577.303.287.7.43 1.097.43a1.59 1.59 0 001.096-.43c.137-.148 2.654-2.454 2.634-2.577h5.687c.929 3.298 6.046 2.707 6.094-.737 0-1.624-1.39-2.945-3.102-2.945zm-10.071 2.998L24 42.319 21.663 40.1a.159.159 0 000-.107L24 37.773l2.337 2.22a.157.157 0 000 .106z" fill="#06F"/><path d="M43.96 12.768H21.158c-1.677 0-3.04 1.407-3.04 3.136v6.274c0 .94.41 1.776 1.048 2.352a3.158 3.158 0 00-1.049 2.354v6.273c-.008 1.84 1.534 3.266 3.3 3.137.719-.83 1.64-1.617 2.78-1.568h-3.04c-.835 0-1.52-.706-1.52-1.569v-6.273c0-.863.684-1.569 1.52-1.569H43.96c.836 0 1.52.706 1.52 1.569v1.568H32.56c-1.68 0-3.04 1.404-3.04 3.137v3.137h-5.321c1.142-.05 2.063.739 2.782 1.568h16.98c1.68 0 3.04-1.404 3.04-3.137v-6.273c0-.944-.41-1.78-1.048-2.354A3.159 3.159 0 0047 22.178v-6.274c0-1.73-1.364-3.136-3.04-3.136zm-6.84 19.997c0 .65-.51 1.176-1.14 1.176h-1.52c-.632 0-1.141-.525-1.141-1.176v-.784c0-.651.51-1.177 1.14-1.177h1.52c.631 0 1.14.526 1.14 1.177v.784zm6.08 0c0 .65-.51 1.176-1.14 1.176h-1.52c-.63 0-1.14-.525-1.14-1.176v-.784c0-.651.51-1.177 1.14-1.177h1.52c.63 0 1.14.526 1.14 1.177v.784zm-6.08-10.98c0 .65-.51 1.177-1.14 1.177h-1.52c-.63 0-1.141-.527-1.141-1.176V21c0-.65.51-1.176 1.14-1.176h1.52c.63 0 1.14.527 1.14 1.176v.785zm6.08 0c0 .65-.51 1.177-1.14 1.177h-1.52c-.63 0-1.14-.527-1.14-1.176V21c0-.65.51-1.176 1.14-1.176h1.52c.63 0 1.14.527 1.14 1.176v.785zm2.28-4.313H32.56c-1.676 0-3.04 1.408-3.04 3.137v3.137h-8.361c-.839 0-1.52-.703-1.52-1.568v-6.274c0-.865.681-1.569 1.52-1.569H43.96c.839 0 1.52.704 1.52 1.569v1.568z" fill="#80B3FF"/><path d="M15.755 37.278h3.899l.207-.215a4.603 4.603 0 01-3.483-4.458v-6.14c0-.837.23-1.627.623-2.302H7.92c-1.009-.02-1.011-1.516 0-1.535h8.527c-.085-.438-.07-1.084-.07-1.535H7.92a.77.77 0 01-.769-.767.77.77 0 01.769-.768h8.458v-1.535h-7.69v-1.535h6.92c1.009-.018 1.013-1.515 0-1.534H7.92a.77.77 0 00-.769.767v2.302h-.677c-.9 0-1.63-.729-1.63-1.627v-5.955c0-.898.73-1.627 1.63-1.627H20.13c.9 0 1.63.729 1.63 1.627v.675h3.845v-3.07A3.842 3.842 0 0021.76 4.21H4.844A3.842 3.842 0 001 8.047v27.627a3.842 3.842 0 003.844 3.838h2.307c.072-4.66 6.32-6.223 8.604-2.233zm-10.91-2.371c-1.01-.02-1.01-1.516 0-1.535 1.01.019 1.01 1.515 0 1.535zm0-3.07c-1.01-.02-1.01-1.516 0-1.535 1.01.02 1.01 1.516 0 1.535zm0-3.07c-1.01-.02-1.01-1.516 0-1.535 1.01.02 1.01 1.516 0 1.535z" fill="#80B3FF"/><path d="M27.21 14.907c-.713.013-.713 1.056 0 1.07.714-.014.714-1.057 0-1.07zM24 14.907c-.713.013-.713 1.056 0 1.07.713-.014.713-1.057 0-1.07zM20.79 14.907c-.712.013-.712 1.056 0 1.07.714-.014.714-1.057 0-1.07zM24 25.605c-.713.013-.713 1.056 0 1.07.713-.014.713-1.057 0-1.07zM27.21 25.605c-.713.013-.713 1.056 0 1.07.714-.014.714-1.057 0-1.07zM20.79 25.605c-.712.013-.712 1.056 0 1.07.714-.014.714-1.057 0-1.07z" fill="#06F"/></svg><svg fill="none" viewBox="0 0 48 48" id="speed" xmlns="http://www.w3.org/2000/svg"><path fill-rule="evenodd" clip-rule="evenodd" d="M23.002 23.784L1.163 13.877c-1.552-.704-1.552-3.05 0-3.753L23.002.217a2.4 2.4 0 011.996 0l21.837 9.908c1.552.704 1.552 3.048 0 3.752l-21.838 9.907a2.4 2.4 0 01-1.995 0zm18.409 7.892l5.425 2.459c1.552.703 1.552 3.046 0 3.75l-21.839 9.898a2.407 2.407 0 01-1.995 0L1.163 37.885c-1.552-.704-1.552-3.047 0-3.75l5.426-2.46 15.173 6.879c.71.321 1.462.485 2.237.485a5.38 5.38 0 002.237-.485l15.174-6.878z" fill="#06F"/><path d="M46.836 22.154l-5.446-2.469-15.153 6.87a5.38 5.38 0 01-2.237.484 5.384 5.384 0 01-2.237-.485L6.61 19.685l-5.446 2.469c-1.552.703-1.552 3.046 0 3.75L23 35.801a2.408 2.408 0 001.996 0l21.84-9.899c1.55-.703 1.55-3.046 0-3.75z" fill="#80B3FF"/></svg><svg fill="none" viewBox="0 0 48 48" id="world" xmlns="http://www.w3.org/2000/svg"><path d="M24 0C10.751 0 0 10.745 0 24s10.751 24 24 24 24-10.745 24-24S37.249 0 24 0zm7.5 34.5c-.377.376.321 1.178 0 1.5-.29.29-1.396-.388-1.5 0-.146.548.197 2.469 0 3l-1.5 4.5c-1.331.29-3.083 0-4.5 0v-3c.163-1.221-.05-3.05-1.5-4.5-.58-.58-1.5-2.178-1.5-3v-3c0-1.127-.514-.955-1.5-1.5-1.39-.77-3.146-2.318-4.5-3-1.11-.56-2.076-2.167-3-3-.66-.597-2.5-.763-3-1.5-.907-1.333-2.04-3.076-3-4.5C7.5 12 12 7.5 16.5 6L18 7.5c1.03.515 3-.348 3-1.5V4.5c.773-.125 2.2.03 3 0l1.5 3c.605.605.605.895 0 1.5v1.5H24c-.302.302-.302 1.198 0 1.5h1.5c.302.302.302 1.198 0 1.5L24 15c.205 0-.145.145 0 0h-1.5c.145-.141-.201 0 0 0L21 16.5c.027-.162-.118.115 0 0-.073-.147-.027.162 0 0l1.5 3c.257.515.575 1.5 0 1.5H21c.14.122-.187 0 0 0l-1.5-1.5c.264.053-.203-.176 0 0-.264-.053-1.245-.085-1.5 0L15 21c.142-.197-.23.077 0 0 0-.243-.142.197 0 0 0 .438-.392 1.303 0 1.5l1.5 1.5c.91.456 1.982 0 3 0s2.09 2.544 3 3h6c.821 0 2.419.92 3 1.5L33 30c.553.554 0 .717 0 1.5 0 .593.228.952 0 1.5s-1.08 1.082-1.5 1.5zm9-9c-.56-.14-1.18.481-1.5 0l-1.5-3c-.255-.381 0-1.041 0-1.5 0-.459-.255-1.119 0-1.5l1.5-3c.224-.336 1.138.18 1.5 0L42 15c1.308 2.605 1.5 5.89 1.5 9 0 .839.105 2.189 0 3l-3-1.5z" fill="#06F"/><path d="M48 24c0 13.255-10.751 24-24 24S0 37.255 0 24 10.751 0 24 0s24 10.745 24 24zM4.5 24c0 10.694 8.812 19.5 19.5 19.5S43.5 34.694 43.5 24 34.688 4.5 24 4.5 4.5 13.306 4.5 24z" fill="#80B3FF"/></svg></svg>