<svg width="20" height="20" viewBox="0 0 20 20" fill="none" xmlns="http://www.w3.org/2000/svg"><path d="M5 10.833A4.163 4.163 0 00.833 15 4.163 4.163 0 005 19.167c2.3 0 4.167-1.867 4.167-4.167S7.308 10.833 5 10.833zM3.3 13.3H5c.317 0 .567.258.567.567a.573.573 0 01-.567.566H3.3a.567.567 0 010-1.133zm3.4 3.4H3.292a.567.567 0 01-.567-.567c0-.308.258-.566.567-.566H6.7a.567.567 0 010 1.133z" fill="#F9FBFD"/><path opacity=".4" d="M14.167 2.5H5.833c-2.5 0-4.166 1.25-4.166 4.167v2.616c0 .609.625.992 1.183.75.917-.4 1.958-.55 3.05-.375 2.183.359 3.967 2.084 4.408 4.25.125.634.142 1.25.059 1.842-.067.492.333.925.825.925h2.975c2.5 0 4.166-1.25 4.166-4.167V6.675c0-2.925-1.666-4.175-4.166-4.175z" fill="#727D99"/><path d="M10 9.892c-.7 0-1.408-.217-1.95-.659L5.442 7.15a.623.623 0 01.775-.975l2.608 2.083c.633.509 1.708.509 2.342 0l2.608-2.083a.615.615 0 01.875.1.615.615 0 01-.1.875l-2.608 2.083c-.534.442-1.242.659-1.942.659z" fill="#F9FBFD"/></svg>