<svg width="20" height="20" viewBox="0 0 20 20" fill="none" xmlns="http://www.w3.org/2000/svg"><path d="M14.369 9.167a.623.623 0 01-.623-.623c0-.3-.3-.923-.801-1.465-.494-.526-1.036-.833-1.489-.833a.623.623 0 010-1.246c.81 0 1.659.437 2.403 1.222.696.736 1.14 1.65 1.14 2.314a.632.632 0 01-.63.63zm3.303 0a.66.66 0 01-.66-.66c0-3.043-2.48-5.512-5.518-5.512a.66.66 0 01-.66-.66c0-.36.291-.668.651-.668 3.776 0 6.848 3.068 6.848 6.84 0 .36-.3.66-.66.66z" fill="#F9FBFD"/><path opacity=".4" d="M10 11.526l-2.783 2.64a20.397 20.397 0 01-.894-.799 23.307 23.307 0 01-2.375-2.64c-.698-.92-1.26-1.841-1.668-2.754-.409-.92-.613-1.8-.613-2.64 0-.55.102-1.074.306-1.559.204-.492.528-.944.98-1.348.544-.509 1.14-.76 1.77-.76.238 0 .476.05.69.146.22.097.416.242.57.452l1.974 2.64c.153.203.264.388.34.566.077.17.12.34.12.493 0 .193-.06.387-.179.573-.11.186-.272.38-.477.573l-.647.638a.42.42 0 00-.136.323c0 .065.009.121.026.186.025.064.05.113.068.161.153.267.417.614.792 1.034.383.42.791.848 1.234 1.276.306.282.604.557.902.8z" fill="#727D99"/><path d="M18.333 15.26a2.196 2.196 0 01-.201.912 3.465 3.465 0 01-.55.855c-.397.452-.833.779-1.326.988-.008 0-.017.008-.025.008a3.96 3.96 0 01-1.552.31c-.824 0-1.706-.2-2.635-.611-.93-.41-1.86-.963-2.781-1.658-.315-.243-.63-.486-.93-.746l2.644-2.738c.226.175.428.31.598.402.04.016.089.042.146.067a.54.54 0 00.202.033c.137 0 .242-.05.331-.142l.614-.628c.202-.21.396-.369.582-.47a1.05 1.05 0 01.574-.175c.154 0 .316.033.494.109.177.075.363.184.566.326l2.675 1.968c.21.151.356.327.445.536.08.21.13.42.13.654z" fill="#F9FBFD"/></svg>